# xmcd CD database file generated by Grip 2.91
# 
# Track frame offsets:
#       150
#       12910
#       24225
#       39530
#       51620
#       70912
#       81905
#       93198
#       105438
#       116613
#       129335
#       143448
#       150538
#       159025
#       174295
#       185908
#       196572
#       210155
#       219150
#       230695
#       242710
#       255672
#       269168
#       280568
#       292708
# 
# Disc length: 4047 seconds
# 
# Revision: 3
# Processed by: cddbd v1.4b41PL1 Copyright (c) Steve Scherf et al.
# Submitted via: Grip 2.91
# 
DISCID=460fcd19
DTITLE=Sonny Boy Williamson - The Collection
DYEAR=1900
DGENRE=
TTITLE0=All My Love In Vain
TTITLE1=Born Blind
TTITLE2=Cross My Heart
TTITLE3=99
TTITLE4=Nine Below Zero
TTITLE5=Got To Move
TTITLE6=Your Funeral  - My Trial
TTITLE7=The Goat
TTITLE8=Bring It On Home
TTITLE9=Keep It To Yourself
TTITLE10=Help Me
TTITLE11=I Wonder Why
TTITLE12=Checkin' Up On My Baby
TTITLE13=Decoration Day
TTITLE14=Don't Start Me Talking
TTITLE15=Fattening Frogs For Snakes
TTITLE16=Lonesome Cabin
TTITLE17=One Way Out
TTITLE18=The Key (To Your Door)
TTITLE19=Trust My Baby
TTITLE20=Work With Me
TTITLE21=Your Imagination
TTITLE22=Stop Crying (All Your Throwing Away Is Mine)
TTITLE23=Santa Claus
TTITLE24=I Don't Know Why
EXTD=
EXTT0=
EXTT1=
EXTT2=
EXTT3=
EXTT4=
EXTT5=
EXTT6=
EXTT7=
EXTT8=
EXTT9=
EXTT10=
EXTT11=
EXTT12=
EXTT13=
EXTT14=
EXTT15=
EXTT16=
EXTT17=
EXTT18=
EXTT19=
EXTT20=
EXTT21=
EXTT22=
EXTT23=
EXTT24=
PLAYORDER=
